<svg width="180" height="166" viewBox="0 0 180 166" fill="none" xmlns="http://www.w3.org/2000/svg">
<path d="M130.886 158.404C146.244 149.601 155.529 130.612 164.217 110.985C172.671 91.3046 180.295 70.9313 178.83 49.2341C177.655 27.3517 167.211 3.85281 149.661 -6.94528C131.822 -17.5582 106.824 -15.2315 83.0322 -10.6182C59.4756 -5.95123 37.1807 0.763476 22.6803 15.5433C8.12527 30.562 1.18442 53.3533 0.153272 76.2391C-0.932481 99.3637 3.65661 122.529 16.7712 137.591C29.9404 152.414 51.6897 158.895 73.0457 162.772C94.4562 166.411 115.708 167.5 130.886 158.404Z" fill="url(#paint0_linear_1_1513)"/>
<defs>
<linearGradient id="paint0_linear_1_1513" x1="24.1742" y1="-38" x2="165.571" y2="172.33" gradientUnits="userSpaceOnUse">
<stop stop-color="#F87537"/>
<stop offset="1" stop-color="#FBA81F"/>
</linearGradient>
</defs>
</svg>
