<svg width="141" height="90" viewBox="0 0 141 90" fill="none" xmlns="http://www.w3.org/2000/svg">
<path d="M130.886 172.907C146.244 164.104 155.529 145.115 164.217 125.488C172.671 105.807 180.295 85.4342 178.83 63.737C177.655 41.8546 167.211 18.3557 149.661 7.55759C131.822 -3.05535 106.824 -0.728638 83.0322 3.88465C59.4756 8.55164 37.1807 15.2663 22.6803 30.0462C8.12527 45.0649 1.18442 67.8561 0.153272 90.7419C-0.932481 113.867 3.65661 137.032 16.7712 152.094C29.9404 166.917 51.6897 173.398 73.0457 177.275C94.4562 180.914 115.708 182.003 130.886 172.907Z" fill="url(#paint0_linear_1_2039)"/>
<defs>
<linearGradient id="paint0_linear_1_2039" x1="24.1742" y1="-23.4972" x2="165.571" y2="186.833" gradientUnits="userSpaceOnUse">
<stop stop-color="#F87537"/>
<stop offset="1" stop-color="#FBA81F"/>
</linearGradient>
</defs>
</svg>
