<svg width="162" height="111" viewBox="0 0 162 111" fill="none" xmlns="http://www.w3.org/2000/svg">
<path d="M152.661 34.2148C143.54 21.3357 125.898 14.7146 107.74 8.67635C89.5548 2.85108 70.8256 -2.17842 51.6957 0.970281C32.3769 3.87788 12.4134 15.1486 4.32624 31.6424C-3.57194 48.3773 0.622901 70.3635 6.74405 91.0835C12.8928 111.591 20.7513 130.803 35.1028 142.412C49.671 154.049 70.4879 158.266 90.8852 157.231C111.499 156.225 131.666 150.178 143.914 137.257C155.947 124.307 159.844 104.454 161.466 85.1717C162.87 65.8614 162.026 46.9091 152.661 34.2148Z" fill="url(#paint0_linear_1_1660)"/>
<defs>
<linearGradient id="paint0_linear_1_1660" x1="-12.5401" y1="145.649" x2="162.064" y2="2.24802" gradientUnits="userSpaceOnUse">
<stop stop-color="#F87537"/>
<stop offset="1" stop-color="#FBA81F"/>
</linearGradient>
</defs>
</svg>
