<svg xmlns="http://www.w3.org/2000/svg" width="154" height="48" fill="none">
  <g clip-path="url(#a)">
    <path fill="url(#b)" d="M55.121 11.502c0-.275.173-.532.534-.772.362-.24.844-.481 1.447-.687a12.199 12.199 0 0 1 2.1-.498c.793-.12 1.62-.189 2.48-.189 1.206 0 2.273.155 3.238.464.964.309 1.773.755 2.445 1.322a5.811 5.811 0 0 1 1.55 2.043c.361.79.55 1.682.55 2.643 0 1.03-.171 1.94-.499 2.73a5.124 5.124 0 0 1-1.412 1.957c-.602.515-1.343.91-2.204 1.185-.86.274-1.825.394-2.876.394-.275 0-.55-.017-.826-.051a11.326 11.326 0 0 1-.81-.137 10.197 10.197 0 0 1-.671-.155 4.39 4.39 0 0 1-.43-.137.263.263 0 0 0-.07.103c-.017.051-.034.103-.034.171 0 .086.034.172.12.258.087.086.207.154.414.223.206.069.448.12.775.172.327.051.74.103 1.24.12v1.854a3.08 3.08 0 0 1-.706.43 7.41 7.41 0 0 1-.861.325 7.966 7.966 0 0 1-.965.206 6.512 6.512 0 0 1-.998.069c-.465 0-.913-.052-1.344-.137-.43-.086-.809-.24-1.136-.447a2.614 2.614 0 0 1-.792-.772c-.207-.31-.293-.704-.293-1.15V11.536l.034-.034Zm6.802 5.665s.07.035.12.035h.104c.19 0 .327-.069.413-.19.087-.12.121-.325.121-.6v-.927c0-.275-.034-.48-.103-.618-.07-.137-.19-.189-.38-.189h-.137a.326.326 0 0 0-.138.034V17.167Z"/>
    <path fill="url(#c)" d="M77.853 24.807a1.742 1.742 0 0 1-.345.24c-.137.069-.292.155-.482.223-.19.069-.413.12-.654.172a4.445 4.445 0 0 1-.878.069c-.362 0-.74-.035-1.137-.103a5.085 5.085 0 0 1-1.136-.327 4.758 4.758 0 0 1-1.05-.635 3.75 3.75 0 0 1-.862-.995 5.14 5.14 0 0 1-.585-1.425 7.822 7.822 0 0 1-.224-1.906v-3.039c-.172-.291-.31-.652-.43-1.03a4.49 4.49 0 0 1-.19-1.339c0-.223 0-.446.034-.686.035-.24.07-.464.12-.704.052-.24.139-.446.225-.67.086-.223.206-.412.327-.6h2.669c.465 0 .895.051 1.291.171.397.12.741.275 1.016.515.276.24.5.532.655.893.155.36.241.79.241 1.287v3.932c0 .446.034.755.12.927.087.171.19.24.328.24.086 0 .137 0 .19-.034.05-.035.085-.052.12-.086a3.284 3.284 0 0 1-.086-.498 8.294 8.294 0 0 1-.035-.755V12.67c.155-.086.327-.172.517-.275.19-.103.413-.172.654-.24a7.81 7.81 0 0 1 .844-.19c.31-.05.671-.068 1.067-.068.707 0 1.31.103 1.826.292s.895.429 1.154.704v6.317c0 .55.069 1.03.19 1.442.12.412.344.704.688.91V22.01c0 .618-.086 1.15-.241 1.579-.155.43-.396.807-.689 1.099a2.677 2.677 0 0 1-1.033.635 4.023 4.023 0 0 1-1.309.206 3.488 3.488 0 0 1-1.67-.412c-.517-.275-.896-.687-1.154-1.253-.276 0-.413.137-.413.395 0 .085.017.188.069.274.051.086.12.189.206.275h.052Z"/>
    <path fill="url(#d)" d="M86.652 12.069c.5 0 .913.085 1.257.24.345.154.603.395.792.687-.103.12-.206.257-.292.412a6.272 6.272 0 0 0-.242.48c-.068.155-.12.31-.172.447a.994.994 0 0 0-.069.326c0 .103.035.189.104.257.069.069.19.12.344.12.155-.6.379-1.098.654-1.493a3.582 3.582 0 0 1 2.135-1.476 5.39 5.39 0 0 1 1.275-.155c.344 0 .672.017.964.069.293.051.552.103.793.171a3.6 3.6 0 0 1 .62.24c.172.087.327.19.447.275.138.344.224.704.276 1.082.051.378.086.755.086 1.116 0 .652-.052 1.202-.172 1.63-.12.43-.242.79-.38 1.082a2.564 2.564 0 0 1-.481.19c-.19.05-.414.12-.637.17a8.338 8.338 0 0 1-.741.121c-.258.034-.517.034-.758.034-.275 0-.5 0-.706-.017a5.167 5.167 0 0 1-1.033-.172c-.138-.034-.293-.068-.43-.103a.362.362 0 0 0-.104.275c0 .12.07.206.224.275.155.069.413.137.81.206v6.077a4.339 4.339 0 0 1-.844.43 11.1 11.1 0 0 1-.827.257 4.254 4.254 0 0 1-.775.12c-.24.017-.482.034-.689.034-.447 0-.878-.034-1.274-.12s-.74-.206-1.033-.395c-.293-.189-.534-.395-.706-.652-.172-.258-.258-.584-.258-.962v-6.231a3.36 3.36 0 0 1-.534-1.15 5.707 5.707 0 0 1-.172-1.34c0-.394.051-.806.172-1.287.12-.48.293-.876.534-1.253h1.86l-.018-.017Z"/>
    <path fill="url(#e)" d="M107.712 16.6c0-.222-.034-.36-.086-.428-.051-.069-.137-.103-.241-.103a.422.422 0 0 0-.275.103c0 .24 0 .48-.035.738a6.676 6.676 0 0 1-.12.704c-.259.12-.62.223-1.068.309-.448.086-.93.137-1.446.137-.276 0-.5 0-.706-.017a5.172 5.172 0 0 1-1.034-.172c-.137-.034-.292-.068-.43-.103a.361.361 0 0 0-.103.275c0 .12.068.206.223.275.155.068.414.137.81.206V24.6a4.347 4.347 0 0 1-.844.43c-.293.102-.568.188-.827.257a4.242 4.242 0 0 1-.774.12c-.242.017-.483.034-.689.034-.448 0-.878-.034-1.275-.12-.396-.086-.74-.206-1.033-.395-.293-.189-.534-.395-.706-.652-.172-.258-.258-.584-.258-.962v-6.231a3.356 3.356 0 0 1-.534-1.15 5.706 5.706 0 0 1-.172-1.34c0-.395.052-.806.172-1.287.12-.48.293-.876.534-1.253h1.86c.5 0 .912.085 1.257.24.344.154.602.395.792.687a2.53 2.53 0 0 0-.293.412 6.344 6.344 0 0 0-.241.48c-.069.155-.12.31-.172.447a.996.996 0 0 0-.069.326.35.35 0 0 0 .103.257c.069.069.19.12.345.12.155-.583.379-1.081.654-1.476.276-.395.603-.72.964-.961.362-.24.741-.43 1.171-.532a5.396 5.396 0 0 1 1.275-.155c.62 0 1.188.103 1.722.326.533.223.981.55 1.343.979 0-.962.138-1.786.413-2.455.276-.67.637-1.219 1.119-1.631a4.445 4.445 0 0 1 1.654-.91 7.12 7.12 0 0 1 2.049-.275 8.47 8.47 0 0 1 1.532.138c.465.086.879.206 1.24.343.362.137.672.292.93.464.258.171.465.343.62.497.034.103.052.206.069.327.017.12.034.24.034.343v.532c0 .447-.034.859-.086 1.202a4.716 4.716 0 0 1-.275.996c-.259.103-.586.171-.982.24-.396.069-.861.086-1.36.086-.224 0-.465 0-.706-.017a8.501 8.501 0 0 1-.689-.07c-.224-.033-.413-.05-.603-.085-.189-.034-.344-.051-.447-.086a.35.35 0 0 0-.069.086c-.018.034-.018.086-.018.155 0 .137.19.257.586.377.396.12 1.016.172 1.894.172.517 0 .93 0 1.274-.034.345-.035.62-.069.861-.103a.97.97 0 0 1 .087.309c.017.137.051.291.086.463.034.172.034.344.051.532.018.19.018.344.018.498 0 .412-.035.756-.104 1.047a2.59 2.59 0 0 1-.31.773h-2.238v7.536a4.347 4.347 0 0 1-.844.43c-.293.103-.568.188-.827.257a4.253 4.253 0 0 1-.775.12c-.241.018-.482.035-.688.035-.448 0-.879-.035-1.275-.12-.396-.086-.74-.207-1.033-.395-.293-.19-.534-.395-.706-.653-.172-.257-.258-.583-.258-.961v-6.73l-.018-.034Z"/>
    <path fill="url(#f)" d="M124.106 25.665c-1.102 0-2.118-.154-3.013-.48-.896-.327-1.671-.773-2.308-1.374-.637-.6-1.119-1.339-1.464-2.197-.344-.859-.516-1.837-.516-2.919 0-1.133.189-2.146.551-3.021a6.229 6.229 0 0 1 1.498-2.198c.637-.6 1.36-1.03 2.187-1.339.826-.309 1.705-.446 2.635-.446.981 0 1.859.137 2.651.43.793.29 1.464.686 2.015 1.184a5.093 5.093 0 0 1 1.274 1.75c.293.67.448 1.391.448 2.147 0 .72-.12 1.339-.379 1.854-.258.515-.602.944-1.067 1.27a4.823 4.823 0 0 1-1.619.738c-.62.155-1.291.24-2.032.24a7.039 7.039 0 0 1-1.601-.188 5.187 5.187 0 0 1-1.326-.515.3.3 0 0 0-.086.12c-.018.052-.018.103-.018.137 0 .12.086.24.276.36.189.121.413.224.689.31.275.086.602.172.964.223a7.7 7.7 0 0 0 1.085.086 8.48 8.48 0 0 0 2.497-.36c.344-.104.62-.207.861-.327.241-.12.447-.24.602-.343.104.086.19.223.276.395.086.171.138.36.207.583.069.224.103.43.12.653.017.223.035.429.035.618s0 .36-.035.532c-.034.172-.051.309-.086.43a7.54 7.54 0 0 1-.844.617 4.864 4.864 0 0 1-1.085.515 9.097 9.097 0 0 1-1.463.36c-.551.086-1.206.138-1.963.138l.034.017Zm-.155-8.189c.207 0 .362-.034.448-.12a.454.454 0 0 0 .155-.326c0-.155-.052-.275-.172-.343a.825.825 0 0 0-.414-.103c-.224 0-.413.068-.534.189a.812.812 0 0 0-.241.497c.086.052.19.103.31.138.121.034.276.068.465.068h-.017Z"/>
    <path fill="url(#g)" d="M137.469 25.665c-1.068 0-2.032-.171-2.876-.515a6.313 6.313 0 0 1-2.17-1.442c-.602-.618-1.05-1.373-1.377-2.249-.328-.875-.483-1.854-.483-2.935 0-1.15.19-2.163.586-3.022.396-.858.895-1.58 1.55-2.146a6.51 6.51 0 0 1 2.187-1.27 7.935 7.935 0 0 1 2.548-.43c.81 0 1.585.104 2.291.31a5.855 5.855 0 0 1 1.859.91c.534.395.948.875 1.24 1.442.293.566.448 1.219.448 1.957a3.8 3.8 0 0 1-.241 1.356 2.922 2.922 0 0 1-.689 1.047 3.187 3.187 0 0 1-1.05.687c-.414.172-.861.24-1.361.24a3.43 3.43 0 0 1-1.136-.171 2.984 2.984 0 0 1-.896-.481 2.336 2.336 0 0 1-.62-.738 2.556 2.556 0 0 1-.31-.945.818.818 0 0 0-.378.086c-.104.052-.155.155-.155.31 0 .257.068.532.223.823.155.292.362.567.655.807.293.24.637.447 1.05.618.413.172.913.24 1.464.24.585 0 1.085-.068 1.481-.188.396-.12.723-.275.981-.447.173.258.31.567.431.945.12.377.172.806.172 1.322 0 .463-.103.926-.327 1.39a3.636 3.636 0 0 1-1.016 1.253c-.465.378-1.016.67-1.688.91-.671.24-1.481.344-2.41.344l.017-.018Z"/>
    <path fill="url(#h)" d="M145.166 17.648h.758c.206 0 .361-.034.464-.103.104-.069.138-.172.138-.292 0-.051 0-.103-.017-.137h-2.721a7.156 7.156 0 0 1-.206-.962 7.163 7.163 0 0 1-.069-1.064c0-.24 0-.498.034-.807.035-.309.069-.55.121-.755.344-.206.671-.43 1.016-.687.344-.257.637-.463.895-.652.069-.172.155-.395.258-.67.104-.274.19-.566.293-.858.103-.292.19-.584.276-.858.086-.275.172-.515.224-.704.258-.069.602-.12 1.033-.172.43-.051.861-.069 1.308-.069.345 0 .707.018 1.051.07.344.05.74.102 1.154.188v2.97h2.101c.241.36.413.755.533 1.184.121.43.173.876.173 1.322 0 .412-.052.841-.173 1.322-.12.48-.292.859-.533 1.202h-1.74v1.837c0 .55.121.961.345 1.184.224.223.551.36.964.36h.517c.069.241.12.499.172.773.052.275.086.55.086.825 0 1.115-.344 1.974-1.05 2.575-.707.6-1.705.875-3.014.875-.654 0-1.257-.086-1.791-.275-.534-.188-.999-.446-1.395-.806-.396-.361-.689-.824-.895-1.357-.207-.532-.31-1.184-.31-1.94V17.648Z"/>
    <path fill="#231F20" d="M55.432 31.914c-.328 0-.655.052-.982.103-.327.052-.62.12-.86.19a3.065 3.065 0 0 0-.62.257c-.156.086-.242.206-.242.326 0 .051 0 .103.052.172.051.068.086.102.137.154.328-.154.741-.309 1.206-.446.465-.138 1.016-.206 1.619-.206.878 0 1.687.154 2.428.48a5.81 5.81 0 0 1 1.928 1.34c.551.583.965 1.27 1.275 2.094.31.824.447 1.716.447 2.712 0 1.236-.19 2.3-.55 3.193a5.769 5.769 0 0 1-1.516 2.18c-.637.567-1.412.98-2.29 1.254-.879.275-1.826.395-2.842.395-.413 0-.843-.018-1.274-.069-.43-.051-.861-.103-1.274-.206a7.79 7.79 0 0 1-1.171-.378 4.07 4.07 0 0 1-.965-.566 2.59 2.59 0 0 1-.654-.79 2.238 2.238 0 0 1-.241-1.047v-13.82c.379-.223.827-.395 1.378-.55a6.155 6.155 0 0 1 2.927-.085c.413.086.758.223 1.068.412.31.189.568.43.757.738.19.31.293.67.293 1.099v1.081l-.034-.017Zm-.38 6.919v.686c0 .19 0 .36-.016.498-.018.138-.018.275-.035.378a2.32 2.32 0 0 0-.034.36.31.31 0 0 0 .12.086.51.51 0 0 0 .172.035c.087 0 .155-.017.207-.069.052-.052.103-.154.155-.309.052-.154.069-.36.086-.618.017-.258.017-.55.017-.927v-1.236c0-.206-.034-.36-.086-.447-.051-.085-.155-.137-.31-.137-.12 0-.206.034-.258.086v1.63l-.017-.016ZM64.628 32.464c.5 0 .912.085 1.257.24.344.154.602.395.792.687-.103.12-.207.257-.293.412a6.253 6.253 0 0 0-.24.48c-.07.155-.122.31-.173.447a.994.994 0 0 0-.069.326c0 .103.034.189.103.257.07.069.19.12.345.12.155-.6.379-1.098.654-1.493a3.584 3.584 0 0 1 2.135-1.476 5.39 5.39 0 0 1 1.275-.155c.344 0 .671.017.964.069.293.051.551.103.792.171.241.07.448.155.62.24a3.4 3.4 0 0 1 .448.275c.138.344.224.704.275 1.082.052.378.086.755.086 1.116 0 .652-.051 1.202-.172 1.63-.12.43-.24.79-.379 1.082a2.56 2.56 0 0 1-.482.19c-.19.05-.413.12-.637.17a8.33 8.33 0 0 1-.74.121c-.259.034-.517.034-.758.034-.276 0-.5 0-.706-.017a5.167 5.167 0 0 1-1.033-.172c-.138-.034-.293-.068-.43-.102a.362.362 0 0 0-.104.274c0 .12.069.206.224.275.155.069.413.137.809.206v6.077a4.337 4.337 0 0 1-.844.43c-.292.102-.568.188-.826.257a4.256 4.256 0 0 1-.775.12c-.241.017-.482.034-.689.034-.448 0-.878-.034-1.274-.12s-.74-.206-1.034-.395c-.292-.189-.533-.395-.706-.652-.172-.258-.258-.584-.258-.961V37.51a3.356 3.356 0 0 1-.534-1.15 5.707 5.707 0 0 1-.172-1.34c0-.394.052-.806.172-1.287.12-.48.293-.876.534-1.253h1.86l-.017-.017ZM81.107 46.077c-1.102 0-2.118-.154-3.013-.48-.896-.327-1.67-.773-2.308-1.374-.637-.6-1.12-1.339-1.464-2.197-.344-.859-.516-1.837-.516-2.919 0-1.133.19-2.146.55-3.021a6.234 6.234 0 0 1 1.499-2.198c.637-.6 1.36-1.03 2.187-1.339.826-.309 1.705-.446 2.635-.446.981 0 1.86.137 2.651.43.793.291 1.464.686 2.015 1.184a5.104 5.104 0 0 1 1.275 1.75c.292.67.447 1.391.447 2.147 0 .72-.12 1.339-.379 1.854-.258.515-.602.944-1.067 1.27a4.821 4.821 0 0 1-1.619.738c-.62.155-1.291.24-2.032.24a7.048 7.048 0 0 1-1.602-.188 5.204 5.204 0 0 1-1.325-.515.308.308 0 0 0-.087.12c-.017.052-.017.103-.017.137 0 .12.086.24.276.36.19.121.413.224.689.31.275.086.602.172.964.223a7.7 7.7 0 0 0 1.085.086c.5 0 .964-.034 1.377-.103a8.975 8.975 0 0 0 1.12-.258 5.35 5.35 0 0 0 .86-.326c.242-.12.448-.24.603-.343.104.086.19.223.276.395.086.171.138.36.207.583a2.9 2.9 0 0 1 .12.653c.017.223.035.429.035.618s0 .36-.035.532c-.034.172-.051.309-.086.43-.258.222-.551.428-.844.617a4.9 4.9 0 0 1-1.085.515 9.126 9.126 0 0 1-1.463.36c-.551.087-1.206.138-1.963.138l.034.017Zm-.155-8.189c.207 0 .362-.034.448-.12a.454.454 0 0 0 .155-.326c0-.154-.052-.275-.173-.343a.82.82 0 0 0-.413-.103c-.224 0-.413.068-.534.189a.806.806 0 0 0-.24.497c.085.052.189.103.31.138.12.034.275.068.464.068h-.017ZM94.848 46.077c-1.102 0-2.118-.154-3.013-.48-.896-.327-1.67-.773-2.308-1.374-.637-.6-1.12-1.339-1.463-2.197-.345-.859-.517-1.837-.517-2.919 0-1.133.19-2.146.55-3.021a6.234 6.234 0 0 1 1.5-2.198c.636-.6 1.36-1.03 2.186-1.339.827-.309 1.705-.446 2.635-.446.981 0 1.86.137 2.652.43.792.291 1.463.686 2.014 1.184a5.108 5.108 0 0 1 1.275 1.75c.292.67.447 1.391.447 2.147 0 .72-.12 1.339-.378 1.854-.259.515-.603.944-1.068 1.27a4.821 4.821 0 0 1-1.619.738c-.62.155-1.291.24-2.032.24a7.046 7.046 0 0 1-1.601-.188 5.206 5.206 0 0 1-1.326-.515.308.308 0 0 0-.086.12c-.017.052-.017.103-.017.137 0 .12.086.24.275.36.19.121.413.224.689.31.275.086.603.172.964.223a7.7 7.7 0 0 0 1.085.086c.5 0 .964-.034 1.378-.103a8.975 8.975 0 0 0 1.119-.258c.344-.103.62-.206.861-.326.241-.12.448-.24.603-.343.103.086.19.223.275.395.086.171.138.36.207.583.069.224.103.43.12.653.018.223.035.429.035.618s0 .36-.035.532c-.034.172-.051.309-.086.43-.258.222-.55.428-.843.617a4.9 4.9 0 0 1-1.085.515 9.126 9.126 0 0 1-1.464.36c-.551.087-1.206.138-1.963.138l.034.017Zm-.155-8.189c.207 0 .362-.034.448-.12a.454.454 0 0 0 .155-.326c0-.154-.052-.275-.172-.343a.821.821 0 0 0-.413-.103c-.224 0-.414.068-.534.189a.805.805 0 0 0-.241.497c.086.052.189.103.31.138.12.034.275.068.465.068h-.018ZM114.204 39.605c0 .55.069 1.03.19 1.442.12.412.344.704.688.91V42.403c0 .619-.103 1.15-.292 1.58-.19.429-.448.807-.758 1.099-.31.291-.672.497-1.068.635a3.73 3.73 0 0 1-2.083.103 3.158 3.158 0 0 1-.792-.31 3.169 3.169 0 0 1-.672-.514 2.06 2.06 0 0 1-.465-.739c-.275 0-.413.138-.413.395 0 .12.051.24.138.412.086.172.223.31.378.43-.241.137-.516.24-.861.309a5.05 5.05 0 0 1-.998.103c-.483 0-.948-.052-1.43-.155a5.744 5.744 0 0 1-1.377-.498c-.448-.223-.844-.532-1.223-.875-.379-.344-.706-.79-.981-1.288a6.846 6.846 0 0 1-.655-1.734 9.633 9.633 0 0 1-.241-2.232c0-1.064.155-1.99.482-2.815.327-.824.758-1.51 1.309-2.077a5.418 5.418 0 0 1 1.963-1.288 6.727 6.727 0 0 1 2.445-.446c.62 0 1.154.069 1.619.189.465.12.861.257 1.171.429a.95.95 0 0 0 .103-.137c.035-.052.035-.103.035-.138 0-.137-.086-.24-.241-.343-.155-.103-.379-.189-.637-.275a5.59 5.59 0 0 0-.844-.189 5.322 5.322 0 0 0-.878-.068c0-.155 0-.326-.018-.498-.017-.172-.034-.36-.069-.532l-.103-.515a2.057 2.057 0 0 0-.138-.43 6.66 6.66 0 0 1 .603-.6c.207-.19.465-.344.74-.481.276-.137.569-.24.913-.31a5.81 5.81 0 0 1 1.154-.12c.465 0 .913.07 1.309.207.396.137.757.343 1.05.618.293.274.534.6.689.995.155.395.241.842.241 1.357v8l.017-.052Zm-5.941-.566v-.687c0-.189 0-.36.017-.498.018-.137.018-.275.035-.378.017-.103.034-.24.034-.36a.308.308 0 0 0-.12-.086c-.052-.017-.104-.034-.172-.034-.087 0-.155.017-.207.068-.052.052-.103.155-.155.31-.052.154-.069.36-.086.617-.017.258-.017.55-.017.928v1.236c0 .206.034.36.086.446.051.086.155.137.31.137.12 0 .206-.034.258-.086v-1.63l.017.017ZM122.763 36.172h-.379c-.121 0-.224.017-.327.051a.536.536 0 0 0-.224.12.337.337 0 0 0-.086.24v.138h.637c.413 0 .826.034 1.257.086a5.757 5.757 0 0 1 2.376.841c.362.223.672.498.93.824.259.326.465.704.62 1.133.155.43.224.927.224 1.494 0 .84-.155 1.579-.448 2.197a4.2 4.2 0 0 1-1.291 1.562c-.551.412-1.223.721-2.015.927-.792.206-1.653.31-2.617.31-.896 0-1.705-.07-2.446-.224-.74-.154-1.377-.378-1.894-.687-.517-.308-.93-.686-1.223-1.15-.292-.463-.43-1.013-.43-1.648a2.723 2.723 0 0 1 .31-1.253c.086-.172.189-.326.31-.464.12-.137.224-.24.344-.309.19.155.448.327.758.498.31.172.672.31 1.068.447s.843.24 1.308.309c.465.068.965.12 1.498.12.242 0 .397-.035.465-.103a.362.362 0 0 0 .104-.275c0-.069 0-.137-.035-.189h-.344c-.792 0-1.55-.086-2.256-.24a5.319 5.319 0 0 1-1.86-.773c-.534-.36-.964-.79-1.274-1.339-.31-.549-.482-1.201-.482-1.957 0-.635.138-1.253.396-1.82a4.481 4.481 0 0 1 1.171-1.527c.516-.447 1.188-.79 1.98-1.047.792-.258 1.722-.395 2.79-.395.534 0 1.033.034 1.515.085.482.052.947.138 1.361.24.413.104.809.224 1.171.379.361.154.671.291.947.446.086.172.137.395.172.687.034.291.052.549.052.79 0 .549-.087 1.012-.242 1.39-.155.378-.344.67-.568.875a4.387 4.387 0 0 0-.637-.291 8.671 8.671 0 0 0-.792-.24 6.67 6.67 0 0 0-.913-.173c-.327-.034-.654-.068-.981-.068v-.017Z"/>
    <path fill="url(#i)" d="M49.68 10.438c-.016-2.936.242-6.215-.447-9.03-.43-1.013-1.79 0-2.376.463L43.12 4.773c-2.514-1.048-5.941-.945-8.37 0-1.48-1.202-2.91-2.352-4.46-3.468-.292-.206-.791-.395-1.153-.326-.758.154-.758 3.433-.826 4.154v5.288c-1.085 2.06-1.533 4.206-1.516 6.626-3.547-3.416-8.627-4.206-13.001-2.06a11.028 11.028 0 0 0-6.079 8.24c-2.772-3.673-3.53-8.944-1.687-13.115 1.136-2.575 3.358-4.515 6.182-4.996 3.72-.618 7.146 1.63 8.506 5.013.638 1.545 2.67 1.905 3.858.927.878-.738 1.085-1.906.706-2.936-.827-2.249-2.325-4.068-4.22-5.528C14.777-2.248 5.788-.018 2.05 6.92c-3.41 6.334-2.342 13.7 1.636 19.502.826 1.201 1.601 2.283 2.634 3.296l8.731 8.48 9.764 9.408c.206.19.568.378.758.378.172 0 .533-.172.688-.326l7.216-6.97 10.28-9.957c2.325-2.25 4.202-4.756 5.597-7.674.447-.944.723-1.854 1.016-2.85.964-3.279.757-6.66-.706-9.785l.017.017Zm-15.29 5.614a2.113 2.113 0 0 1-2.119-2.112c0-1.167.947-2.112 2.118-2.112 1.171 0 2.118.945 2.118 2.112a2.113 2.113 0 0 1-2.118 2.112Zm9.212 0a2.113 2.113 0 0 1-2.118-2.112c0-1.167.947-2.112 2.118-2.112 1.171 0 2.118.945 2.118 2.112a2.113 2.113 0 0 1-2.118 2.112Z"/>
  </g>
  <defs>
    <linearGradient id="b" x1="55.087" x2="71.163" y1="25.545" y2="11.267" gradientUnits="userSpaceOnUse">
      <stop stop-color="var(--logo-gradient-start)"/>
      <stop offset="1" stop-color="var(--logo-gradient-stop)"/>
    </linearGradient>
    <linearGradient id="c" x1="69.88" x2="83.501" y1="25.528" y2="11.383" gradientUnits="userSpaceOnUse">
      <stop stop-color="var(--logo-gradient-start)"/>
      <stop offset="1" stop-color="var(--logo-gradient-stop)"/>
    </linearGradient>
    <linearGradient id="d" x1="84.103" x2="97.487" y1="25.476" y2="14.108" gradientUnits="userSpaceOnUse">
      <stop stop-color="var(--logo-gradient-start)"/>
      <stop offset="1" stop-color="var(--logo-gradient-stop)"/>
    </linearGradient>
    <linearGradient id="e" x1="96.089" x2="113.363" y1="25.494" y2="4.762" gradientUnits="userSpaceOnUse">
      <stop stop-color="var(--logo-gradient-start)"/>
      <stop offset="1" stop-color="var(--logo-gradient-stop)"/>
    </linearGradient>
    <linearGradient id="f" x1="116.805" x2="130.76" y1="25.665" y2="12.424" gradientUnits="userSpaceOnUse">
      <stop stop-color="var(--logo-gradient-start)"/>
      <stop offset="1" stop-color="var(--logo-gradient-stop)"/>
    </linearGradient>
    <linearGradient id="g" x1="130.563" x2="144.521" y1="25.683" y2="13.036" gradientUnits="userSpaceOnUse">
      <stop stop-color="var(--logo-gradient-start)"/>
      <stop offset="1" stop-color="var(--logo-gradient-stop)"/>
    </linearGradient>
    <linearGradient id="h" x1="143.513" x2="158.537" y1="25.545" y2="16.118" gradientUnits="userSpaceOnUse">
      <stop stop-color="var(--logo-gradient-start)"/>
      <stop offset="1" stop-color="var(--logo-gradient-stop)"/>
    </linearGradient>
    <linearGradient id="i" x1=".006" x2="47.899" y1="47.983" y2="-2.879" gradientUnits="userSpaceOnUse">
      <stop stop-color="var(--logo-gradient-start)"/>
      <stop offset="1" stop-color="var(--logo-gradient-stop)"/>
    </linearGradient>
    <clipPath id="a">
      <path fill="#fff" d="M0 0h154v48H0z"/>
    </clipPath>
  </defs>
</svg>