<svg width="665" height="344" viewBox="0 0 665 344" fill="none" xmlns="http://www.w3.org/2000/svg">
<path d="M633.227 28.8688C634.117 26.351 631.706 23.2435 627.771 22.1311C624.774 21.2839 619.782 21.9399 619.09 24.5119C618.712 25.918 620.642 30.046 624.546 31.2491C628.449 32.4523 632.336 31.3866 633.227 28.8688Z" fill="white" fill-opacity="0.12"/>
<path d="M631.207 37.1127C629.013 36.9607 625.091 38.8323 625.111 40.9948C625.125 42.4849 627.804 44.9253 631.158 44.944C634.51 44.9623 637.24 43.2244 637.253 41.0618C637.267 38.8993 634.551 37.3446 631.207 37.1127Z" fill="white" fill-opacity="0.12"/>
<path d="M660.669 21.9998C657.302 20.1918 655.211 21.2734 653.133 22.1797C651.189 23.0272 648.996 23.1705 646.927 22.642C643.262 21.7064 639.512 23.1187 637.476 25.9977C635.44 28.8766 635.523 32.6503 637.886 35.4274C639.22 36.9958 639.941 38.9336 639.87 40.935C639.794 43.0751 639.551 45.2946 642.655 47.4734C646.487 50.1624 652.041 48.9092 654.682 45.1745C655.426 44.1222 655.873 42.9677 656.041 41.7967C656.224 40.529 656.7 39.3296 657.427 38.288C658.168 37.2541 659.162 36.3737 660.339 35.7191C661.426 35.1143 662.388 34.2771 663.132 33.2248C665.773 29.4907 664.825 24.2314 660.669 21.9998Z" fill="white" fill-opacity="0.12"/>
<path d="M638.66 21.1521C640.783 19.3893 640.288 15.6369 637.554 12.7701C634.822 9.90359 629.996 9.88909 628.763 10.7715C626.509 12.3851 627.846 16.9222 629.869 19.1531C632.525 22.0825 636.538 22.9148 638.66 21.1521Z" fill="white" fill-opacity="0.12"/>
<path d="M652.247 19.7696C654.368 18.8992 654.994 15.8715 653.645 13.0064C652.295 10.1416 648.831 8.81488 647.36 9.39488C645.226 10.2366 644.943 14.339 645.963 16.1577C647.518 18.9306 650.126 20.6399 652.247 19.7696Z" fill="white" fill-opacity="0.12"/>
<path d="M589.011 22.7284C591.884 23.241 594.961 20.5275 595.653 16.6291C596.179 13.6597 594.794 8.98934 591.888 8.6738C590.299 8.50118 586.041 10.8919 585.246 14.7731C584.452 18.6539 586.137 22.2157 589.011 22.7284Z" fill="white" fill-opacity="0.12"/>
<path d="M576.201 28.2048C578.569 27.9289 579.907 25.1329 579.714 21.9153C579.587 19.8045 577.016 16.3169 574.653 16.6245C573.025 16.8365 570.712 19.7165 571.14 22.914C571.568 26.112 573.834 28.4806 576.201 28.2048Z" fill="white" fill-opacity="0.12"/>
<path d="M597.652 34.9536C598.186 31.3359 596.14 27.9508 592.719 26.3952C589.297 24.8399 585.18 25.423 582.457 28.0454C580.92 29.5265 578.897 30.4721 576.697 30.672C574.346 30.8857 571.885 30.9503 569.916 34.2C567.487 38.2113 569.6 43.3366 574.038 45.3545C575.289 45.9231 576.611 46.1945 577.915 46.1986C579.327 46.2028 580.702 46.4966 581.938 47.051C583.169 47.6182 584.264 48.4478 585.138 49.4825C585.945 50.4378 586.99 51.2429 588.24 51.8111C592.679 53.829 598.305 52.2223 600.191 47.9641C601.719 44.5139 600.257 42.6658 598.987 40.806C597.8 39.0667 597.351 36.9967 597.652 34.9536Z" fill="white" fill-opacity="0.12"/>
<path d="M607.201 24.7005C609.972 21.7132 609.344 17.1123 608.214 16.0555C606.148 14.1229 601.362 16.003 599.192 18.2291C596.342 21.1515 595.968 25.0872 598.179 26.8741C600.391 28.6611 604.431 27.6879 607.201 24.7005Z" fill="white" fill-opacity="0.12"/>
<path d="M604.616 33.1727C601.791 35.0253 600.269 37.7385 601.504 39.6438C602.74 41.5489 606.136 41.7408 609.09 40.0719C612.044 38.4034 613.032 34.9251 612.201 33.6012C610.995 31.6796 606.469 31.9575 604.616 33.1727Z" fill="white" fill-opacity="0.12"/>
<path d="M533.091 10.428C534.539 9.50622 534.606 7.13998 533.125 5.2184C531.997 3.7546 529.287 2.32912 527.915 3.34688C527.165 3.9034 526.453 6.60107 527.882 8.55648C529.311 10.5119 531.643 11.3498 533.091 10.428Z" fill="white" fill-opacity="0.12"/>
<path d="M528.798 13.7642C527.784 12.9221 525.111 12.4668 524.251 13.5332C523.66 14.2679 523.992 16.4011 525.627 17.5835C527.263 18.7659 529.298 18.8692 530.173 17.8145C531.049 16.7601 530.343 15.0478 528.798 13.7642Z" fill="white" fill-opacity="0.12"/>
<path d="M545.537 14.1172C544.244 13.8524 543.113 13.1554 542.311 12.1725C540.891 10.4318 538.486 9.81144 536.332 10.5095C534.179 11.2076 532.704 13.0853 532.746 15.2727C532.769 16.508 532.344 17.7094 531.505 18.6654C530.609 19.6873 529.597 20.6895 530.244 22.8434C531.041 25.5017 534.266 26.8309 537.06 25.9253C537.847 25.6702 538.529 25.2607 539.082 24.746C539.681 24.1888 540.396 23.7679 541.171 23.5121C541.948 23.2646 542.789 23.181 543.629 23.2722C544.405 23.3564 545.212 23.2829 545.999 23.0278C548.793 22.1222 550.441 19.2139 549.301 16.6664C548.378 14.6023 546.919 14.4003 545.537 14.1172Z" fill="white" fill-opacity="0.12"/>
<path d="M538.848 8.54838C540.596 8.42755 541.86 6.41586 541.673 4.05514C541.485 1.69442 539.127 -0.00103523 538.169 4.74254e-07C536.416 0.00172665 535.249 2.6925 535.343 4.49325C535.468 6.85742 537.1 8.66921 538.848 8.54838Z" fill="white" fill-opacity="0.12"/>
<path d="M546.063 12.6276C547.452 12.9435 548.975 11.6789 549.464 9.8032C549.954 7.92754 548.79 6.06568 547.837 5.83507C546.453 5.50053 544.666 7.41141 544.435 8.65944C544.084 10.562 544.675 12.312 546.063 12.6276Z" fill="white" fill-opacity="0.12"/>
<path d="M471.582 29.694C473.146 28.5962 473.089 25.9544 471.332 23.8823C469.993 22.3043 466.892 20.845 465.418 22.046C464.612 22.703 463.967 25.7456 465.669 27.8577C467.37 29.9695 470.018 30.7919 471.582 29.694Z" fill="white" fill-opacity="0.12"/>
<path d="M463.647 38.033C465.535 39.2727 467.811 39.29 468.729 38.072C469.647 36.8537 468.765 34.9784 466.971 33.6212C465.794 32.7309 462.787 32.3518 461.889 33.5822C461.269 34.4301 461.757 36.7933 463.647 38.033Z" fill="white" fill-opacity="0.12"/>
<path d="M470.262 38.956C469.319 40.1392 468.247 41.305 469.086 43.6761C470.123 46.6023 473.792 47.9294 476.858 46.785C477.721 46.4625 478.461 45.9733 479.048 45.3726C479.684 44.7222 480.459 44.2185 481.309 43.896C482.163 43.5822 483.095 43.4489 484.037 43.51C484.907 43.5667 485.803 43.4455 486.667 43.1234C489.733 41.9789 491.41 38.656 489.998 35.8703C488.854 33.6132 487.216 33.4585 485.659 33.2089C484.202 32.9755 482.902 32.2529 481.953 31.1951C480.274 29.3222 477.558 28.7464 475.195 29.6285C472.832 30.5105 471.291 32.6759 471.458 35.1129C471.553 36.4893 471.145 37.8496 470.262 38.956Z" fill="white" fill-opacity="0.12"/>
<path d="M477.894 27.3197C479.837 27.1008 481.136 24.7964 480.796 22.1726C480.457 19.5491 477.733 17.7715 476.664 17.8188C474.71 17.9051 473.557 20.9622 473.762 22.9659C474.031 25.5963 475.951 27.5386 477.894 27.3197Z" fill="white" fill-opacity="0.12"/>
<path d="M486.163 31.5216C487.729 31.8071 489.358 30.3237 489.8 28.2081C490.242 26.0928 488.841 24.0721 487.766 23.8612C486.204 23.555 484.317 25.7717 484.128 27.1748C483.841 29.3132 484.597 31.2361 486.163 31.5216Z" fill="white" fill-opacity="0.12"/>
<path d="M513.047 105.128C515.609 102.571 517.497 97.2165 514.903 95.1606C513.484 94.0365 507.71 93.7859 504.257 97.0639C500.805 100.342 499.973 104.804 502.401 107.031C504.827 109.258 509.682 108.485 513.047 105.128Z" fill="white" fill-opacity="0.12"/>
<path d="M484.988 96.4537C483.191 99.8067 483.747 103.464 486.229 104.623C488.712 105.782 491.94 103.881 493.978 100.651C495.315 98.531 495.237 93.6069 492.737 92.4814C491.014 91.706 486.786 93.1012 484.988 96.4537Z" fill="white" fill-opacity="0.12"/>
<path d="M503.455 112.814C501.218 109.248 496.829 107.333 492.381 108.231C489.869 108.738 487.256 108.435 484.989 107.304C482.566 106.095 480.139 104.675 475.987 106.635C470.862 109.054 469.364 115.288 472.265 119.914C473.081 121.218 474.174 122.277 475.433 123.066C476.796 123.92 477.924 125.033 478.738 126.314C479.537 127.604 480.024 129.067 480.154 130.595C480.274 132.005 480.729 133.414 481.546 134.717C484.447 139.343 491.004 141.177 495.774 138.191C499.639 135.772 499.501 133.103 499.558 130.538C499.612 128.139 500.608 125.865 502.312 124.069C505.331 120.89 505.69 116.38 503.455 112.814Z" fill="white" fill-opacity="0.12"/>
<path d="M515.373 108.808C510.594 109.921 507.511 113.504 508.416 116.566C509.322 119.628 513.905 121.119 518.652 119.897C523.399 118.674 525.972 113.842 525.609 112.138C524.945 109.023 519.014 107.961 515.373 108.808Z" fill="white" fill-opacity="0.12"/>
<path d="M510.29 126.542C506.274 126.633 502.925 128.343 502.804 130.931C502.683 133.519 505.837 135.75 509.85 135.914C513.863 136.078 517.225 133.307 517.336 131.525C517.497 128.939 512.924 126.482 510.29 126.542Z" fill="white" fill-opacity="0.12"/>
<path d="M409.198 104.587C412.396 104.862 415.448 101.592 415.76 97.2656C415.997 93.9696 413.953 89.0051 410.742 88.9485C408.986 88.9174 404.607 91.9513 404.181 96.2699C403.755 100.588 406.001 104.312 409.198 104.587Z" fill="white" fill-opacity="0.12"/>
<path d="M395.828 111.839C398.382 111.303 399.526 108.115 398.949 104.62C398.57 102.327 395.364 98.772 392.818 99.3423C391.063 99.7352 388.865 103.111 389.696 106.561C390.527 110.012 393.272 112.375 395.828 111.839Z" fill="white" fill-opacity="0.12"/>
<path d="M411.66 136.434C416.738 138.199 422.702 135.886 424.278 131.047C425.555 127.126 423.746 125.252 422.148 123.347C420.653 121.564 419.927 119.347 420.023 117.086C420.195 113.081 417.574 109.586 413.66 108.226C409.745 106.866 405.313 107.911 402.638 111.045C401.127 112.816 399.024 114.05 396.645 114.486C394.1 114.953 391.42 115.267 389.639 119.012C387.441 123.635 390.333 129.025 395.411 130.789C396.842 131.286 398.318 131.452 399.742 131.327C401.285 131.191 402.82 131.376 404.235 131.859C405.643 132.356 406.934 133.154 408.006 134.198C408.997 135.162 410.229 135.937 411.66 136.434Z" fill="white" fill-opacity="0.12"/>
<path d="M419.67 108.208C422.29 109.94 426.592 108.477 429.278 104.938C431.966 101.4 430.755 96.4367 429.4 95.3941C426.923 93.4877 421.909 96.0162 419.792 98.6631C417.012 102.138 417.051 106.474 419.67 108.208Z" fill="white" fill-opacity="0.12"/>
<path d="M424.762 121.827C426.328 123.785 430.06 123.658 433.096 121.542C436.134 119.427 436.817 115.529 435.759 114.165C434.223 112.185 429.31 112.938 427.424 114.449C424.549 116.753 423.195 119.868 424.762 121.827Z" fill="white" fill-opacity="0.12"/>
<path d="M454.71 190.774C457.743 193.032 463.149 191.622 466.54 187.446C469.123 184.265 470.589 177.987 467.388 175.941C465.637 174.822 459.058 175.173 455.558 179.269C452.057 183.366 451.677 188.517 454.71 190.774Z" fill="white" fill-opacity="0.12"/>
<path d="M433.628 180.697C432.014 184.696 433.105 188.781 436.067 189.823C439.027 190.864 442.448 188.354 444.35 184.467C445.599 181.917 444.888 176.342 441.913 175.341C439.861 174.651 435.243 176.698 433.628 180.697Z" fill="white" fill-opacity="0.12"/>
<path d="M456.639 197.215C453.653 193.418 448.436 191.729 443.506 193.236C440.721 194.088 437.721 194.032 435.008 192.998C432.107 191.893 429.177 190.551 424.716 193.23C419.21 196.536 418.299 203.769 422.172 208.695C423.263 210.083 424.636 211.164 426.162 211.92C427.816 212.739 429.236 213.876 430.32 215.24C431.388 216.615 432.125 218.22 432.466 219.938C432.78 221.524 433.473 223.07 434.565 224.459C438.438 229.385 446.103 230.743 451.135 226.833C455.211 223.666 454.718 220.654 454.459 217.74C454.218 215.014 455.06 212.326 456.765 210.103C459.786 206.165 459.624 201.013 456.639 197.215Z" fill="white" fill-opacity="0.12"/>
<path d="M469.633 191.363C464.356 193.15 461.312 197.552 462.725 200.924C464.138 204.297 469.522 205.483 474.751 203.575C479.979 201.666 482.285 195.905 481.659 194.014C480.512 190.555 473.654 190.002 469.633 191.363Z" fill="white" fill-opacity="0.12"/>
<path d="M466.118 212.027C461.577 212.573 457.996 214.879 458.185 217.827C458.374 220.775 462.232 222.957 466.803 222.702C471.373 222.447 474.835 218.935 474.736 216.902C474.592 213.952 469.098 211.669 466.118 212.027Z" fill="white" fill-opacity="0.12"/>
<path d="M412.346 246.998C411.381 247.466 409.959 250.326 411.096 252.794C412.232 255.262 414.635 256.669 416.462 255.936C418.289 255.203 418.915 252.581 417.713 250.14C416.797 248.281 414.111 246.143 412.346 246.998Z" fill="white" fill-opacity="0.12"/>
<path d="M410.898 258.78C409.966 257.636 407.094 256.587 405.889 257.6C405.059 258.298 404.932 260.742 406.479 262.391C408.024 264.039 410.267 264.567 411.488 263.57C412.708 262.573 412.32 260.523 410.898 258.78Z" fill="white" fill-opacity="0.12"/>
<path d="M429.454 262.568C428.075 262.01 426.978 261.005 426.314 259.747C425.138 257.52 422.604 256.341 420.043 256.682C417.482 257.023 415.401 258.815 414.938 261.259C414.677 262.64 413.924 263.892 412.767 264.786C411.53 265.742 410.171 266.654 410.388 269.183C410.657 272.306 413.939 274.441 417.262 273.999C418.198 273.875 419.054 273.557 419.789 273.096C420.586 272.597 421.48 272.273 422.403 272.146C423.327 272.027 424.283 272.105 425.197 272.377C426.041 272.629 426.958 272.71 427.894 272.586C431.217 272.144 433.729 269.239 433.053 266.171C432.505 263.685 430.928 263.164 429.454 262.568Z" fill="white" fill-opacity="0.12"/>
<path d="M423.315 255.011C425.289 255.23 427.167 253.246 427.508 250.579C427.85 247.912 425.618 245.544 424.55 245.351C422.597 244.998 420.671 247.757 420.357 249.783C419.944 252.441 421.34 254.791 423.315 255.011Z" fill="white" fill-opacity="0.12"/>
<path d="M433.96 253.812C432.497 253.159 430.061 254.925 429.514 256.268C428.679 258.315 428.93 260.384 430.402 261.018C431.876 261.651 433.866 260.552 434.849 258.562C435.831 256.572 434.968 254.263 433.96 253.812Z" fill="white" fill-opacity="0.12"/>
<path d="M330.68 284.185C331.141 281.288 327.888 278.333 323.382 277.816C319.95 277.422 314.651 279.016 314.418 281.936C314.291 283.533 317.226 287.684 321.717 288.305C326.208 288.926 330.221 287.081 330.68 284.185Z" fill="white" fill-opacity="0.12"/>
<path d="M330.159 293.509C327.741 293.73 323.853 296.457 324.312 298.807C324.628 300.425 328.037 302.608 331.689 302.038C335.341 301.467 337.959 299.095 337.536 296.74C337.113 294.384 333.843 293.172 330.159 293.509Z" fill="white" fill-opacity="0.12"/>
<path d="M359.146 271.875C355.117 270.501 353.061 272.047 350.983 273.399C349.039 274.664 346.683 275.206 344.324 274.996C340.148 274.624 336.353 276.822 334.721 280.313C333.088 283.804 333.942 287.895 337.074 290.5C338.843 291.972 340.019 293.953 340.347 296.143C340.698 298.485 340.882 300.942 344.701 302.766C349.414 305.016 355.204 302.674 357.321 298.145C357.918 296.869 358.171 295.534 358.117 294.23C358.058 292.818 358.334 291.43 358.915 290.169C359.512 288.913 360.414 287.78 361.563 286.86C362.625 286.01 363.501 284.93 364.098 283.654C366.215 279.125 364.119 273.571 359.146 271.875Z" fill="white" fill-opacity="0.12"/>
<path d="M325.056 274.206C328.538 276.925 333.073 277.123 335.026 274.831C336.978 272.539 335.68 268.543 332.127 265.906C328.573 263.269 323.32 264.104 322.157 265.281C320.031 267.434 322.404 272.135 325.056 274.206Z" fill="white" fill-opacity="0.12"/>
<path d="M349.537 270.932C351.669 269.611 351.737 266.206 349.689 263.327C347.641 260.448 343.605 259.615 342.122 260.505C339.97 261.797 340.491 266.311 341.97 268.11C344.223 270.853 347.406 272.253 349.537 270.932Z" fill="white" fill-opacity="0.12"/>
<path d="M269.562 294.096C271.778 294.019 273.558 291.526 273.359 288.537C273.207 286.259 271.333 283.029 269.13 283.257C267.924 283.381 265.214 285.823 265.333 288.816C265.453 291.809 267.346 294.173 269.562 294.096Z" fill="white" fill-opacity="0.12"/>
<path d="M261.098 300.171C262.798 299.592 263.277 297.314 262.548 294.968C262.071 293.428 259.536 291.26 257.846 291.862C256.682 292.277 255.498 294.771 256.396 297.065C257.295 299.36 259.4 300.75 261.098 300.171Z" fill="white" fill-opacity="0.12"/>
<path d="M280.228 305.868C279.034 304.771 278.325 303.313 278.176 301.756C277.912 298.999 275.783 296.823 272.973 296.216C270.163 295.61 267.227 296.694 265.693 299.063C264.827 300.401 263.504 301.421 261.916 301.917C260.218 302.448 258.412 302.885 257.55 305.598C256.485 308.947 258.978 312.398 262.625 313.185C263.652 313.407 264.679 313.397 265.642 313.194C266.686 312.973 267.756 312.972 268.771 313.185C269.782 313.409 270.743 313.849 271.577 314.474C272.347 315.052 273.265 315.481 274.292 315.703C277.938 316.489 281.803 314.41 282.421 310.965C282.921 308.174 281.504 307.041 280.228 305.868Z" fill="white" fill-opacity="0.12"/>
<path d="M277.087 295.704C279.046 296.673 281.853 295.314 283.356 292.668C284.859 290.021 283.557 286.722 282.53 286.121C280.651 285.02 277.458 287.168 276.26 289.157C274.687 291.768 275.127 294.735 277.087 295.704Z" fill="white" fill-opacity="0.12"/>
<path d="M282.998 299.336C281.249 301.152 280.619 303.398 281.878 304.609C283.138 305.821 285.681 305.424 287.56 303.723C289.438 302.022 289.535 299.295 288.68 298.449C287.439 297.221 284.147 298.144 282.998 299.336Z" fill="white" fill-opacity="0.12"/>
<path d="M214.8 351.039C216.64 350.69 217.76 348.379 217.153 345.906C216.692 344.023 214.651 341.564 212.843 342.037C211.853 342.295 209.948 344.683 210.488 347.169C211.029 349.655 212.96 351.387 214.8 351.039Z" fill="white" fill-opacity="0.12"/>
<path d="M221.335 351.417C223.115 351.976 225.261 350.48 226.127 348.076C226.994 345.671 225.42 343.081 224.473 342.711C222.741 342.032 220.389 344.237 219.681 346.052C218.751 348.435 219.555 350.858 221.335 351.417Z" fill="white" fill-opacity="0.12"/>
<path d="M177.117 288.812C179.391 286.611 181.117 281.958 178.88 280.13C177.657 279.131 172.618 278.84 169.555 281.661C166.493 284.481 165.703 288.368 167.791 290.343C169.879 292.318 174.13 291.703 177.117 288.812Z" fill="white" fill-opacity="0.12"/>
<path d="M153.704 288.039C155.855 289.082 158.702 287.462 160.528 284.666C161.726 282.831 161.728 278.53 159.561 277.516C158.067 276.817 154.354 277.983 152.736 280.889C151.118 283.795 151.552 286.996 153.704 288.039Z" fill="white" fill-opacity="0.12"/>
<path d="M168.638 295.407C166.736 292.265 162.931 290.538 159.032 291.267C156.831 291.679 154.554 291.382 152.59 290.366C150.49 289.279 148.392 288.009 144.736 289.67C140.226 291.719 138.828 297.145 141.296 301.222C141.991 302.371 142.931 303.309 144.019 304.014C145.198 304.777 146.167 305.763 146.859 306.892C147.538 308.029 147.943 309.312 148.035 310.648C148.12 311.882 148.497 313.117 149.193 314.266C151.661 318.343 157.361 320.026 161.57 317.477C164.979 315.412 164.897 313.079 164.983 310.839C165.064 308.745 165.967 306.771 167.481 305.224C170.162 302.484 170.541 298.55 168.638 295.407Z" fill="white" fill-opacity="0.12"/>
<path d="M179.093 292.055C174.903 292.967 172.16 296.059 172.907 298.745C173.654 301.43 177.635 302.79 181.799 301.78C185.963 300.771 188.278 296.583 187.985 295.09C187.45 292.361 182.284 291.36 179.093 292.055Z" fill="white" fill-opacity="0.12"/>
<path d="M174.409 307.481C170.901 307.511 167.952 308.962 167.809 311.222C167.666 313.48 170.39 315.468 173.893 315.661C177.395 315.854 180.371 313.476 180.493 311.92C180.671 309.664 176.712 307.461 174.409 307.481Z" fill="white" fill-opacity="0.12"/>
<path d="M112.362 294.958C114.081 296.072 116.936 295.132 118.601 292.771C119.869 290.973 120.417 287.545 118.615 286.551C117.63 286.008 114.103 286.416 112.376 288.738C110.65 291.059 110.643 293.844 112.362 294.958Z" fill="white" fill-opacity="0.12"/>
<path d="M102.288 295.069C103.922 295.531 105.667 294.066 106.542 291.91C107.116 290.496 106.52 287.519 104.879 287.08C103.749 286.778 101.342 288.034 100.627 290.24C99.911 292.446 100.655 294.608 102.288 295.069Z" fill="white" fill-opacity="0.12"/>
<path d="M106.419 296.658C104.953 297.209 103.336 297.279 101.836 296.814C100.233 296.316 98.605 295.691 96.3064 297.282C93.4701 299.245 93.257 303.168 95.5308 305.69C96.1714 306.401 96.9515 306.937 97.8019 307.292C98.7233 307.678 99.5308 308.243 100.167 308.94C100.794 309.644 101.253 310.483 101.502 311.396C101.732 312.239 102.164 313.049 102.805 313.759C105.079 316.281 109.256 316.756 111.814 314.483C113.886 312.642 113.505 311.038 113.254 309.478C113.019 308.02 113.369 306.545 114.202 305.291C115.677 303.071 115.392 300.304 113.64 298.359C111.887 296.416 109.015 295.682 106.419 296.658Z" fill="white" fill-opacity="0.12"/>
<path d="M120.413 294.776C117.642 295.914 116.172 298.385 117.062 300.153C117.952 301.921 120.895 302.379 123.635 301.177C126.376 299.976 127.397 296.798 126.987 295.801C126.237 293.978 122.524 293.91 120.413 294.776Z" fill="white" fill-opacity="0.12"/>
<path d="M119.309 306.015C116.886 306.461 115.047 307.822 115.262 309.402C115.476 310.982 117.637 312.028 120.087 311.738C122.537 311.447 124.265 309.442 124.134 308.351C123.944 306.768 120.899 305.723 119.309 306.015Z" fill="white" fill-opacity="0.12"/>
<path d="M25.1182 320.3C27.501 321.575 30.1979 321.363 31.1415 319.826C32.0851 318.289 30.9518 315.954 28.536 314.735C26.6961 313.807 23.3345 313.613 22.5133 315.21C22.0643 316.083 22.736 319.026 25.1182 320.3Z" fill="white" fill-opacity="0.12"/>
<path d="M28.6482 324.971C27.2337 324.597 24.3988 325.332 24.1018 326.75C23.8969 327.727 25.301 329.659 27.493 330.09C29.685 330.521 31.7202 329.724 32.0394 328.31C32.3579 326.897 30.8036 325.54 28.6482 324.971Z" fill="white" fill-opacity="0.12"/>
<path d="M45.1276 317.933C43.7342 318.246 42.2787 318.066 40.9999 317.461C38.7351 316.392 36.0781 316.848 34.3333 318.478C32.5885 320.108 32.1021 322.588 33.2499 324.701C33.898 325.894 34.0921 327.252 33.7592 328.553C33.4027 329.945 32.9259 331.367 34.6451 333.18C36.768 335.419 40.5823 335.292 42.8465 333.177C43.4838 332.581 43.9417 331.881 44.2195 331.136C44.5206 330.329 45.0041 329.603 45.6299 329.013C46.2624 328.428 47.0392 327.976 47.9037 327.695C48.7015 327.435 49.4513 327.007 50.0894 326.411C52.3531 324.296 52.4856 320.736 50.0857 318.756C48.1415 317.153 46.6183 317.6 45.1276 317.933Z" fill="white" fill-opacity="0.12"/>
<path d="M30.8144 307.424C29.1077 308.198 29.3322 311.335 30.3369 313.048C31.6555 315.296 34.1627 316.342 35.8039 315.453C37.4459 314.565 37.6597 312.046 36.2814 309.829C34.904 307.612 31.7476 307 30.8144 307.424Z" fill="white" fill-opacity="0.12"/>
<path d="M43.1911 308.846C41.6735 309.13 40.8996 311.78 41.3069 313.097C41.928 315.106 43.3898 316.551 44.9023 316.246C46.4148 315.941 47.2585 314.037 46.7858 311.994C46.3138 309.95 44.2365 308.65 43.1911 308.846Z" fill="white" fill-opacity="0.12"/>
<path d="M18.2455 204.565C21.2498 203.647 22.6395 199.58 21.1093 195.556C19.943 192.492 16.0176 188.751 13.0925 189.871C11.4934 190.483 8.80616 194.822 10.2295 198.88C11.6518 202.938 15.2412 205.483 18.2455 204.565Z" fill="white" fill-opacity="0.12"/>
<path d="M9.21107 215.991C11.2951 214.575 10.994 211.278 9.00874 208.329C7.70597 206.395 3.32086 204.352 1.25906 205.797C-0.162077 206.792 -0.735046 210.643 1.46065 213.458C3.65709 216.274 7.12671 217.408 9.21107 215.991Z" fill="white" fill-opacity="0.12"/>
<path d="M29.5688 231.755C30.8671 232.264 32.3056 232.515 33.8067 232.443C39.1343 232.185 43.5541 227.919 42.952 222.972C42.4641 218.964 40.0457 217.931 37.8038 216.791C35.7064 215.726 34.1218 213.988 33.2625 211.909C31.7404 208.228 27.909 206.025 23.8021 206.224C19.6955 206.423 16.129 208.984 15.0234 212.793C14.3994 214.944 13.0152 216.825 11.0481 218.088C8.94413 219.438 6.65411 220.699 6.61269 224.733C6.56275 229.712 11.4324 233.527 16.76 233.269C18.2614 233.196 19.6641 232.807 20.8992 232.175C22.2363 231.49 23.7011 231.096 25.1811 231.017C26.6618 230.953 28.1632 231.203 29.5688 231.755Z" fill="white" fill-opacity="0.12"/>
<path d="M29.2385 204.011C32.3312 204.621 35.6055 201.729 36.552 197.552C37.4982 193.375 34.3264 189.332 32.6656 188.884C29.6287 188.065 26.1576 192.178 25.352 195.342C24.2944 199.496 26.1458 203.4 29.2385 204.011Z" fill="white" fill-opacity="0.12"/>
<path d="M39.5326 214.462C41.7682 215.661 45.0866 214.184 46.9449 211.165C48.8033 208.145 47.789 204.374 46.2617 203.528C44.0446 202.299 39.9206 204.771 38.8486 206.825C37.2156 209.956 37.2969 213.264 39.5326 214.462Z" fill="white" fill-opacity="0.12"/>
</svg>
