<svg xmlns="http://www.w3.org/2000/svg" width="51" height="48" fill="none" viewBox="0 0 51 48"><path fill="#231f20" d="M49.675 10.435c-.017-2.936.241-6.215-.448-9.03-.43-1.013-1.79 0-2.376.463L43.114 4.77c-2.514-1.048-5.94-.945-8.369 0-1.48-1.202-2.91-2.352-4.46-3.468-.293-.206-.792-.395-1.154-.326-.757.154-.757 3.433-.826 4.154v5.288c-1.085 2.06-1.533 4.206-1.516 6.626-3.547-3.416-8.627-4.206-13-2.06a11.03 11.03 0 0 0-6.08 8.24C4.937 19.552 4.18 14.28 6.022 10.11c1.136-2.575 3.358-4.515 6.182-4.996 3.72-.618 7.146 1.63 8.507 5.013.637 1.545 2.669 1.906 3.857.927.878-.738 1.085-1.906.706-2.936-.827-2.249-2.325-4.068-4.219-5.528C14.77-2.25 5.781-.02 2.044 6.916c-3.41 6.334-2.342 13.7 1.636 19.502.826 1.201 1.601 2.283 2.635 3.296l8.73 8.48 9.764 9.408c.207.19.568.378.758.378.172 0 .534-.172.689-.326l7.215-6.97 10.28-9.957c2.325-2.25 4.202-4.756 5.597-7.674.447-.944.723-1.854 1.016-2.85.964-3.279.757-6.66-.706-9.785zm-15.292 5.614a2.113 2.113 0 0 1-2.118-2.112c0-1.167.947-2.111 2.118-2.111s2.118.944 2.118 2.111a2.113 2.113 0 0 1-2.118 2.112m9.213 0a2.113 2.113 0 0 1-2.118-2.112c0-1.167.947-2.111 2.118-2.111s2.118.944 2.118 2.111a2.113 2.113 0 0 1-2.118 2.112"/></svg>